# xmcd
#
# Track frame offsets:
#   150
#   17370
#   37097
#   53242
#   75267
#   88430
#   107912
#   123225
#   139152
#   153255
#
# Disc length: 2348 seconds
#
# Revision: 0
# Processed by: cddbd v1.5.2PL0 Copyright (c) Steve Scherf et al.
# Submitted via: uFREEDB ActiveX Control 1.5
#
DISCID=79092a0a
DTITLE=Julio Cesar e Marlene - Segredo
DYEAR=2000
DGENRE=Christian
TTITLE0=Segredo
TTITLE1=Eu só queria
TTITLE2=Igreja reunida
TTITLE3=Filho meu
TTITLE4=Vou e volta
TTITLE5=A porta que Deus abre
TTITLE6=A maior riqueza
TTITLE7=Espelho dos humanos
TTITLE8=Vaso novo
TTITLE9=Fruto do amor
EXTD=
EXTT0=
EXTT1=
EXTT2=
EXTT3=
EXTT4=
EXTT5=
EXTT6=
EXTT7=
EXTT8=
EXTT9=
PLAYORDER=
